<svg width="52" height="25" viewBox="0 0 52 25" fill="none" xmlns="http://www.w3.org/2000/svg">
<path fill-rule="evenodd" clip-rule="evenodd" d="M17.313 0.558656L3.03877 8.79028C1.08797 9.93224 0.421836 12.4065 1.56377 14.3573C2.70571 16.3082 5.1799 16.9743 7.13071 15.8324L21.4049 7.60074C23.3557 6.45878 24.0218 3.98454 22.8799 2.03369C21.7856 0.0828423 19.2638 -0.583303 17.313 0.558656Z" fill="#EA4334"/>
<path fill-rule="evenodd" clip-rule="evenodd" d="M21.3078 17.1174L7.03355 8.8858C5.08274 7.74385 2.56096 8.40999 1.4666 10.3608C0.324668 12.3117 0.990798 14.8335 2.94161 15.9279L17.2158 24.1595C19.1666 25.3015 21.6884 24.6353 22.7828 22.6845C23.9247 20.7336 23.2586 18.2118 21.3078 17.1174Z" fill="#4285F4"/>
<path fill-rule="evenodd" clip-rule="evenodd" d="M30.8261 17.2595L45.1003 9.02789C47.0511 7.88594 49.5729 8.55208 50.6673 10.5029C51.8092 12.4538 51.1431 14.9756 49.1923 16.07L34.9181 24.3016C32.9673 25.4435 30.4455 24.7774 29.3511 22.8265C28.2092 20.8757 28.8753 18.3539 30.8261 17.2595Z" fill="#FCBC05"/>
<path fill-rule="evenodd" clip-rule="evenodd" d="M35.057 0.701233L49.3312 8.93285C51.282 10.0748 51.9481 12.549 50.8062 14.4999C49.6643 16.4507 47.1901 17.1169 45.2393 15.9749L30.965 7.74331C29.0142 6.60135 28.3481 4.12711 29.49 2.17626C30.5844 0.22542 33.1062 -0.440725 35.057 0.701233Z" fill="#0D9D58"/>
</svg>